<svg xmlns="http://www.w3.org/2000/svg" viewBox="0 0 520 520" role="img" aria-labelledby="title desc">
  <title id="title">Student holding an excellent report card</title>
  <desc id="desc">A cheerful student wearing a graduation cap and holding an A plus report card.</desc>
  <defs>
    <linearGradient id="bg" x1="78" y1="54" x2="454" y2="486" gradientUnits="userSpaceOnUse">
      <stop stop-color="#FFF8EC"/>
      <stop offset="1" stop-color="#EAF5FF"/>
    </linearGradient>
    <linearGradient id="navy" x1="116" y1="116" x2="395" y2="460" gradientUnits="userSpaceOnUse">
      <stop stop-color="#123047"/>
      <stop offset="1" stop-color="#1E5AA8"/>
    </linearGradient>
    <linearGradient id="gold" x1="150" y1="70" x2="370" y2="430" gradientUnits="userSpaceOnUse">
      <stop stop-color="#FFD166"/>
      <stop offset="1" stop-color="#F59E0B"/>
    </linearGradient>
    <filter id="shadow" x="-20%" y="-20%" width="140%" height="150%">
      <feDropShadow dx="0" dy="18" stdDeviation="18" flood-color="#123047" flood-opacity=".16"/>
    </filter>
  </defs>

  <rect width="520" height="520" rx="48" fill="url(#bg)"/>
  <circle cx="407" cy="114" r="76" fill="#2F80ED" opacity=".08"/>
  <circle cx="91" cy="412" r="96" fill="#FFD166" opacity=".18"/>
  <path d="M79 358c43-66 106-100 189-102 87-2 153 30 198 96v96H79v-90Z" fill="#DFF0FF"/>

  <g filter="url(#shadow)">
    <path d="M158 432c8-81 49-124 110-124s103 43 111 124H158Z" fill="url(#navy)"/>
    <path d="M188 430c9-47 36-74 80-74 45 0 72 27 82 74H188Z" fill="#2F80ED" opacity=".26"/>
    <path d="M205 296c14 39 38 59 65 59 28 0 51-20 65-59l-27-20h-77l-26 20Z" fill="#FFD6B6"/>
    <path d="M222 309c14 17 30 25 48 25s34-8 48-25v51c-15 14-31 21-48 21s-33-7-48-21v-51Z" fill="#F8C6A3"/>

    <circle cx="270" cy="223" r="78" fill="#FFD6B6"/>
    <path d="M188 216c8-55 38-88 87-88 42 0 72 24 84 72-36-13-76-21-120-21-22 0-39 12-51 37Z" fill="#123047"/>
    <path d="M198 222c-11 1-19 10-18 23 1 15 12 25 27 24l-9-47Z" fill="#F8C6A3"/>
    <path d="M343 222c11 1 19 10 18 23-1 15-12 25-27 24l9-47Z" fill="#F8C6A3"/>
    <circle cx="240" cy="232" r="7" fill="#123047"/>
    <circle cx="302" cy="232" r="7" fill="#123047"/>
    <path d="M246 278c15 16 34 16 49 0" fill="none" stroke="#123047" stroke-width="8" stroke-linecap="round"/>
    <path d="M251 253c6 6 13 6 19 0" fill="none" stroke="#C9815D" stroke-width="5" stroke-linecap="round"/>

    <path d="M151 154 270 99l119 55-119 55-119-55Z" fill="#123047"/>
    <path d="M198 178h145v42c-30 19-97 19-145 0v-42Z" fill="#1E5AA8"/>
    <path d="M389 154v77" fill="none" stroke="url(#gold)" stroke-width="8" stroke-linecap="round"/>
    <circle cx="389" cy="244" r="14" fill="url(#gold)"/>
  </g>

  <g filter="url(#shadow)">
    <rect x="283" y="304" width="154" height="118" rx="20" fill="#FFFDF7" stroke="#FFD166" stroke-width="6"/>
    <rect x="307" y="332" width="78" height="12" rx="6" fill="#BDD7F5"/>
    <rect x="307" y="358" width="104" height="12" rx="6" fill="#BDD7F5"/>
    <rect x="307" y="384" width="70" height="12" rx="6" fill="#BDD7F5"/>
    <text x="384" y="366" fill="#1E5AA8" font-family="Arial, sans-serif" font-size="38" font-weight="900">A+</text>
  </g>

  <path d="M197 351c29 22 51 34 72 37" fill="none" stroke="#FFD6B6" stroke-width="26" stroke-linecap="round"/>
  <path d="M332 355c-30 20-51 31-68 33" fill="none" stroke="#FFD6B6" stroke-width="26" stroke-linecap="round"/>
  <circle cx="137" cy="109" r="18" fill="#FFD166" opacity=".76"/>
  <circle cx="432" cy="302" r="12" fill="#2F80ED" opacity=".18"/>
</svg>
